<svg xmlns="http://www.w3.org/2000/svg" width="1600" height="760" viewBox="0 0 1600 760" role="img" aria-labelledby="diagram-title diagram-desc"><title id="diagram-title">P4 起始 AWS 架構</title><desc id="diagram-desc">玩家經 Internet Gateway 連入 public EC2；EC2 使用 private RDS 保存共同狀態，並呼叫 Amazon Bedrock 續寫故事。</desc><g><g></g><g><g transform="translate(0.5,0.5)" style="visibility: visible;"><rect x="0" y="0" width="1600" height="760" fill="#0b1019" stroke="none" pointer-events="all" style="fill: light-dark(rgb(11, 16, 25), rgb(219, 224, 231));"></rect></g><g transform="translate(0.5,0.5)" style="visibility: visible;"><rect x="1305" y="108" width="275" height="58" fill="none" stroke="white" pointer-events="stroke" visibility="hidden" stroke-width="9"></rect><rect x="1305" y="108" width="275" height="58" fill="none" stroke="none" pointer-events="all"></rect></g><g style=""><g><foreignObject style="overflow: visible; text-align: left;" pointer-events="none" width="100%" height="100%"><div xmlns="http://www.w3.org/1999/xhtml" style="display: flex; align-items: unsafe center; justify-content: unsafe center; width: 273px; height: 1px; padding-top: 137px; margin-left: 1306px;"><div xmlns="http://www.w3.org/1999/xhtml" style="box-sizing: border-box; font-size: 0; text-align: center; color: #F2BD57; "><div xmlns="http://www.w3.org/1999/xhtml" style="display: inline-block; font-size: 20px; font-family: 'PingFang TC'; color: light-dark(#F2BD57, #724400); line-height: 1.2; pointer-events: all; font-weight: bold; white-space: normal; word-wrap: normal; ">AWS MANAGED<br/>SERVICE · VPC 外</div></div></div></foreignObject></g></g><g style="visibility: visible;"><path d="M 230 144 L 230 100 L 1310 100 L 1310 144" fill="none" stroke="white" stroke-width="10" stroke-miterlimit="10" pointer-events="stroke" style="stroke: light-dark(rgb(91, 145, 188), rgb(80, 127, 164));" visibility="hidden"></path><path d="M 230 144 L 230 100 L 1310 100 L 1310 144" fill="none" stroke="#5b91bc" stroke-width="2" stroke-miterlimit="10" pointer-events="all" style="stroke: light-dark(rgb(91, 145, 188), rgb(80, 127, 164));"></path><path d="M 230 144 L 230 540 L 1310 540 L 1310 144" fill="none" stroke="white" stroke-width="10" stroke-miterlimit="10" pointer-events="stroke" style="stroke: light-dark(rgb(91, 145, 188), rgb(80, 127, 164));" visibility="hidden"></path><path d="M 230 144 L 230 540 L 1310 540 L 1310 144" fill="none" stroke="#5b91bc" stroke-width="2" stroke-miterlimit="10" pointer-events="none" style="stroke: light-dark(rgb(91, 145, 188), rgb(80, 127, 164));"></path><path d="M 230 144 L 1310 144" fill="none" stroke="white" stroke-width="10" stroke-miterlimit="10" pointer-events="stroke" style="stroke: light-dark(rgb(91, 145, 188), rgb(80, 127, 164));" visibility="hidden"></path><path d="M 230 144 L 1310 144" fill="none" stroke="#5b91bc" stroke-width="2" stroke-miterlimit="10" pointer-events="none" style="stroke: light-dark(rgb(91, 145, 188), rgb(80, 127, 164));"></path></g><g style=""><g><foreignObject style="overflow: visible; text-align: left;" pointer-events="none" width="100%" height="100%"><div xmlns="http://www.w3.org/1999/xhtml" style="display: flex; align-items: unsafe center; justify-content: unsafe flex-start; width: 1062px; height: 1px; padding-top: 122px; margin-left: 248px;"><div xmlns="http://www.w3.org/1999/xhtml" style="box-sizing: border-box; font-size: 0; text-align: left; color: #A9D6F5; "><div xmlns="http://www.w3.org/1999/xhtml" style="display: inline-block; font-size: 24px; font-family: 'PingFang TC'; color: light-dark(#A9D6F5, #1b425d); line-height: 1.2; pointer-events: all; font-weight: bold; white-space: normal; word-wrap: normal; ">Amazon VPC</div></div></div></foreignObject></g></g><g style="visibility: visible;"><path d="M 730 199 L 730 160.28 Q 730 155 724.72 155 L 285.28 155 Q 280 155 280 160.28 L 280 199" fill-opacity="0.72" fill="#101723" stroke="#5b91bc" stroke-width="2" stroke-miterlimit="10" stroke-dasharray="16 10" pointer-events="all" style="fill: light-dark(rgb(16, 23, 35), rgb(212, 218, 228)); stroke: light-dark(rgb(91, 145, 188), rgb(80, 127, 164));"></path><path d="M 280 199 L 280 499.72 Q 280 505 285.28 505 L 724.72 505 Q 730 505 730 499.72 L 730 199" fill-opacity="0.72" fill="#101723" stroke="#5b91bc" stroke-width="2" stroke-miterlimit="10" stroke-dasharray="16 10" pointer-events="all" style="fill: light-dark(rgb(16, 23, 35), rgb(212, 218, 228)); stroke: light-dark(rgb(91, 145, 188), rgb(80, 127, 164));"></path><path d="M 280 199 L 730 199" fill="none" stroke="white" stroke-width="10" stroke-miterlimit="10" pointer-events="stroke" style="stroke: light-dark(rgb(91, 145, 188), rgb(80, 127, 164));" visibility="hidden"></path><path d="M 280 199 L 730 199" fill="none" stroke="#5b91bc" stroke-width="2" stroke-miterlimit="10" stroke-dasharray="16 10" pointer-events="all" style="stroke: light-dark(rgb(91, 145, 188), rgb(80, 127, 164));"></path></g><g style=""><g><foreignObject style="overflow: visible; text-align: left;" pointer-events="none" width="100%" height="100%"><div xmlns="http://www.w3.org/1999/xhtml" style="display: flex; align-items: unsafe center; justify-content: unsafe flex-start; width: 434px; height: 1px; padding-top: 177px; margin-left: 296px;"><div xmlns="http://www.w3.org/1999/xhtml" style="box-sizing: border-box; font-size: 0; text-align: left; color: #9CCBF1; "><div xmlns="http://www.w3.org/1999/xhtml" style="display: inline-block; font-size: 20px; font-family: 'PingFang TC'; color: light-dark(#9CCBF1, #234b6c); line-height: 1.2; pointer-events: all; font-weight: bold; white-space: normal; word-wrap: normal; ">public app subnet</div></div></div></foreignObject></g></g><g transform="translate(0.5,0.5)" style="visibility: visible;"><path d="M 705 287 L 705 253.82 Q 705 245 696.18 245 L 313.82 245 Q 305 245 305 253.82 L 305 287" fill="#161d29" stroke="#c7645d" stroke-miterlimit="10" pointer-events="all" style="fill: light-dark(rgb(22, 29, 41), rgb(207, 213, 223)); stroke: light-dark(rgb(199, 100, 93), rgb(201, 116, 110));"></path><path d="M 305 287 L 305 426.18 Q 305 435 313.82 435 L 696.18 435 Q 705 435 705 426.18 L 705 287" fill="#161d29" stroke="#c7645d" stroke-miterlimit="10" pointer-events="all" style="fill: light-dark(rgb(22, 29, 41), rgb(207, 213, 223)); stroke: light-dark(rgb(199, 100, 93), rgb(201, 116, 110));"></path><path d="M 305 287 L 705 287" fill="none" stroke="white" stroke-miterlimit="10" pointer-events="stroke" style="stroke: light-dark(rgb(199, 100, 93), rgb(201, 116, 110));" visibility="hidden" stroke-width="9"></path><path d="M 305 287 L 705 287" fill="none" stroke="#c7645d" stroke-miterlimit="10" pointer-events="all" style="stroke: light-dark(rgb(199, 100, 93), rgb(201, 116, 110));"></path></g><g style=""><g><foreignObject style="overflow: visible; text-align: left;" pointer-events="none" width="100%" height="100%"><div xmlns="http://www.w3.org/1999/xhtml" style="display: flex; align-items: unsafe center; justify-content: unsafe flex-start; width: 386px; height: 1px; padding-top: 266px; margin-left: 319px;"><div xmlns="http://www.w3.org/1999/xhtml" style="box-sizing: border-box; font-size: 0; text-align: left; color: #FFB8B2; "><div xmlns="http://www.w3.org/1999/xhtml" style="display: inline-block; font-size: 20px; font-family: 'PingFang TC'; color: light-dark(#FFB8B2, #733631); line-height: 1.2; pointer-events: all; font-weight: bold; white-space: normal; word-wrap: normal; ">Web Security Group</div></div></div></foreignObject></g></g><g transform="translate(0.5,0.5)" style="visibility: visible;"><rect x="345" y="315" width="330" height="66" fill="none" stroke="white" pointer-events="stroke" visibility="hidden" stroke-width="9"></rect></g><g transform="translate(0.5,0.5)" style="visibility: visible;"><path d="M 345 319 L 403 319 L 403 377 L 345 377 Z" fill="#ed7100" stroke="none" pointer-events="all" style="fill: light-dark(rgb(237, 113, 0), rgb(216, 109, 12));"></path><path d="M 363.23 358.77 L 383.94 358.77 L 383.94 338.06 L 363.23 338.06 Z M 385.6 338.06 L 388.91 338.06 L 388.91 339.71 L 385.6 339.71 L 385.6 343.03 L 388.91 343.03 L 388.91 344.69 L 385.6 344.69 L 385.6 347.17 L 388.91 347.17 L 388.91 348.83 L 385.6 348.83 L 385.6 352.14 L 388.91 352.14 L 388.91 353.8 L 385.6 353.8 L 385.6 357.11 L 388.91 357.11 L 388.91 358.77 L 385.6 358.77 L 385.6 358.88 C 385.6 359.74 384.91 360.43 384.06 360.43 L 383.94 360.43 L 383.94 363.74 L 382.29 363.74 L 382.29 360.43 L 378.97 360.43 L 378.97 363.74 L 377.31 363.74 L 377.31 360.43 L 374.83 360.43 L 374.83 363.74 L 373.17 363.74 L 373.17 360.43 L 369.86 360.43 L 369.86 363.74 L 368.2 363.74 L 368.2 360.43 L 364.89 360.43 L 364.89 363.74 L 363.23 363.74 L 363.23 360.43 L 363.12 360.43 C 362.26 360.43 361.57 359.74 361.57 358.88 L 361.57 358.77 L 359.09 358.77 L 359.09 357.11 L 361.57 357.11 L 361.57 353.8 L 359.09 353.8 L 359.09 352.14 L 361.57 352.14 L 361.57 348.83 L 359.09 348.83 L 359.09 347.17 L 361.57 347.17 L 361.57 344.69 L 359.09 344.69 L 359.09 343.03 L 361.57 343.03 L 361.57 339.71 L 359.09 339.71 L 359.09 338.06 L 361.57 338.06 L 361.57 337.94 C 361.57 337.09 362.26 336.4 363.12 336.4 L 363.23 336.4 L 363.23 333.09 L 364.89 333.09 L 364.89 336.4 L 368.2 336.4 L 368.2 333.09 L 369.86 333.09 L 369.86 336.4 L 373.17 336.4 L 373.17 333.09 L 374.83 333.09 L 374.83 336.4 L 377.31 336.4 L 377.31 333.09 L 378.97 333.09 L 378.97 336.4 L 382.29 336.4 L 382.29 333.09 L 383.94 333.09 L 383.94 336.4 L 384.06 336.4 C 384.91 336.4 385.6 337.09 385.6 337.94 Z M 374.83 369.44 C 374.83 369.5 374.78 369.54 374.73 369.54 L 352.56 369.54 C 352.5 369.54 352.46 369.5 352.46 369.44 L 352.46 347.27 C 352.46 347.22 352.5 347.17 352.56 347.17 L 357.43 347.17 L 357.43 345.51 L 352.56 345.51 C 351.59 345.51 350.8 346.3 350.8 347.27 L 350.8 369.44 C 350.8 370.41 351.59 371.2 352.56 371.2 L 374.73 371.2 C 375.7 371.2 376.49 370.41 376.49 369.44 L 376.49 365.4 L 374.83 365.4 Z M 397.2 326.56 L 397.2 348.73 C 397.2 349.7 396.41 350.49 395.44 350.49 L 390.57 350.49 L 390.57 348.83 L 395.44 348.83 C 395.5 348.83 395.54 348.78 395.54 348.73 L 395.54 326.56 C 395.54 326.5 395.5 326.46 395.44 326.46 L 373.27 326.46 C 373.22 326.46 373.17 326.5 373.17 326.56 L 373.17 331.43 L 371.51 331.43 L 371.51 326.56 C 371.51 325.59 372.3 324.8 373.27 324.8 L 395.44 324.8 C 396.41 324.8 397.2 325.59 397.2 326.56 Z" fill="#ffffff" stroke="none" pointer-events="all" style="fill: light-dark(rgb(255, 255, 255), rgb(18, 18, 18));"></path></g><g transform="translate(0.5,0.5)" style="visibility: visible;"><rect x="411" y="315" width="264" height="66" fill="#161d29" stroke="none" pointer-events="all" style="fill: light-dark(rgb(22, 29, 41), rgb(207, 213, 223));"></rect></g><g style=""><g><foreignObject style="overflow: visible; text-align: left;" pointer-events="none" width="100%" height="100%"><div xmlns="http://www.w3.org/1999/xhtml" style="display: flex; align-items: unsafe center; justify-content: unsafe flex-start; width: 254px; height: 1px; padding-top: 348px; margin-left: 421px;"><div xmlns="http://www.w3.org/1999/xhtml" style="box-sizing: border-box; font-size: 0; text-align: left; color: #9ED4F5; "><div xmlns="http://www.w3.org/1999/xhtml" style="display: inline-block; font-size: 20px; font-family: 'PingFang TC'; color: light-dark(#9ED4F5, #184663); line-height: 1.2; pointer-events: all; font-weight: bold; white-space: normal; word-wrap: normal; ">Amazon EC2<br/><font color="#AEB8B4" style="color: light-dark(rgb(174, 184, 180), rgb(74, 83, 80));">Nginx · Web · API</font></div></div></div></foreignObject></g></g><g style="visibility: visible;"><path d="M 1260 199 L 1260 160.28 Q 1260 155 1254.72 155 L 785.28 155 Q 780 155 780 160.28 L 780 199" fill-opacity="0.72" fill="#0f191c" stroke="#3e9b8f" stroke-width="2" stroke-miterlimit="10" stroke-dasharray="16 10" pointer-events="all" style="fill: light-dark(rgb(15, 25, 28), rgb(211, 219, 222)); stroke: light-dark(rgb(62, 155, 143), rgb(59, 139, 129));"></path><path d="M 780 199 L 780 499.72 Q 780 505 785.28 505 L 1254.72 505 Q 1260 505 1260 499.72 L 1260 199" fill-opacity="0.72" fill="#0f191c" stroke="#3e9b8f" stroke-width="2" stroke-miterlimit="10" stroke-dasharray="16 10" pointer-events="all" style="fill: light-dark(rgb(15, 25, 28), rgb(211, 219, 222)); stroke: light-dark(rgb(62, 155, 143), rgb(59, 139, 129));"></path><path d="M 780 199 L 1260 199" fill="none" stroke="white" stroke-width="10" stroke-miterlimit="10" pointer-events="stroke" style="stroke: light-dark(rgb(62, 155, 143), rgb(59, 139, 129));" visibility="hidden"></path><path d="M 780 199 L 1260 199" fill="none" stroke="#3e9b8f" stroke-width="2" stroke-miterlimit="10" stroke-dasharray="16 10" pointer-events="all" style="stroke: light-dark(rgb(62, 155, 143), rgb(59, 139, 129));"></path></g><g style=""><g><foreignObject style="overflow: visible; text-align: left;" pointer-events="none" width="100%" height="100%"><div xmlns="http://www.w3.org/1999/xhtml" style="display: flex; align-items: unsafe center; justify-content: unsafe flex-start; width: 464px; height: 1px; padding-top: 177px; margin-left: 796px;"><div xmlns="http://www.w3.org/1999/xhtml" style="box-sizing: border-box; font-size: 0; text-align: left; color: #73D4C5; "><div xmlns="http://www.w3.org/1999/xhtml" style="display: inline-block; font-size: 20px; font-family: 'PingFang TC'; color: light-dark(#73D4C5, #095c4f); line-height: 1.2; pointer-events: all; font-weight: bold; white-space: normal; word-wrap: normal; ">private data subnets · DB subnet group</div></div></div></foreignObject></g></g><g transform="translate(0.5,0.5)" style="visibility: visible;"><path d="M 800 245 L 800 205 L 1240 205 L 1240 245" fill="#101a1d" stroke="#347e75" stroke-miterlimit="10" stroke-dasharray="4 4" pointer-events="all" style="fill: light-dark(rgb(16, 26, 29), rgb(210, 218, 221)); stroke: light-dark(rgb(52, 126, 117), rgb(94, 157, 149));"></path><path d="M 800 245 L 800 440 L 1240 440 L 1240 245" fill="#101a1d" stroke="#347e75" stroke-miterlimit="10" stroke-dasharray="4 4" pointer-events="all" style="fill: light-dark(rgb(16, 26, 29), rgb(210, 218, 221)); stroke: light-dark(rgb(52, 126, 117), rgb(94, 157, 149));"></path><path d="M 800 245 L 1240 245" fill="none" stroke="white" stroke-miterlimit="10" pointer-events="stroke" style="stroke: light-dark(rgb(52, 126, 117), rgb(94, 157, 149));" visibility="hidden" stroke-width="9"></path><path d="M 800 245 L 1240 245" fill="none" stroke="#347e75" stroke-miterlimit="10" stroke-dasharray="4 4" pointer-events="all" style="stroke: light-dark(rgb(52, 126, 117), rgb(94, 157, 149));"></path></g><g style=""><g><foreignObject style="overflow: visible; text-align: left;" pointer-events="none" width="100%" height="100%"><div xmlns="http://www.w3.org/1999/xhtml" style="display: flex; align-items: unsafe center; justify-content: unsafe flex-start; width: 428px; height: 1px; padding-top: 225px; margin-left: 812px;"><div xmlns="http://www.w3.org/1999/xhtml" style="box-sizing: border-box; font-size: 0; text-align: left; color: #73D4C5; "><div xmlns="http://www.w3.org/1999/xhtml" style="display: inline-block; font-size: 19px; font-family: 'PingFang TC'; color: light-dark(#73D4C5, #095c4f); line-height: 1.2; pointer-events: all; font-weight: bold; white-space: normal; word-wrap: normal; ">private data subnet · AZ A</div></div></div></foreignObject></g></g><g transform="translate(0.5,0.5)" style="visibility: visible;"><path d="M 1225 288 L 1225 257.98 Q 1225 250 1217.02 250 L 822.98 250 Q 815 250 815 257.98 L 815 288" fill="#161d29" stroke="#c7645d" stroke-miterlimit="10" pointer-events="all" style="fill: light-dark(rgb(22, 29, 41), rgb(207, 213, 223)); stroke: light-dark(rgb(199, 100, 93), rgb(201, 116, 110));"></path><path d="M 815 288 L 815 407.02 Q 815 415 822.98 415 L 1217.02 415 Q 1225 415 1225 407.02 L 1225 288" fill="#161d29" stroke="#c7645d" stroke-miterlimit="10" pointer-events="all" style="fill: light-dark(rgb(22, 29, 41), rgb(207, 213, 223)); stroke: light-dark(rgb(199, 100, 93), rgb(201, 116, 110));"></path><path d="M 815 288 L 1225 288" fill="none" stroke="white" stroke-miterlimit="10" pointer-events="stroke" style="stroke: light-dark(rgb(199, 100, 93), rgb(201, 116, 110));" visibility="hidden" stroke-width="9"></path><path d="M 815 288 L 1225 288" fill="none" stroke="#c7645d" stroke-miterlimit="10" pointer-events="all" style="stroke: light-dark(rgb(199, 100, 93), rgb(201, 116, 110));"></path></g><g style=""><g><foreignObject style="overflow: visible; text-align: left;" pointer-events="none" width="100%" height="100%"><div xmlns="http://www.w3.org/1999/xhtml" style="display: flex; align-items: unsafe center; justify-content: unsafe flex-start; width: 398px; height: 1px; padding-top: 269px; margin-left: 827px;"><div xmlns="http://www.w3.org/1999/xhtml" style="box-sizing: border-box; font-size: 0; text-align: left; color: #FFB8B2; "><div xmlns="http://www.w3.org/1999/xhtml" style="display: inline-block; font-size: 20px; font-family: 'PingFang TC'; color: light-dark(#FFB8B2, #733631); line-height: 1.2; pointer-events: all; font-weight: bold; white-space: normal; word-wrap: normal; ">DB Security Group</div></div></div></foreignObject></g></g><g transform="translate(0.5,0.5)" style="visibility: visible;"><rect x="845" y="315" width="340" height="66" fill="none" stroke="white" pointer-events="stroke" visibility="hidden" stroke-width="9"></rect></g><g transform="translate(0.5,0.5)" style="visibility: visible;"><path d="M 845 319 L 903 319 L 903 377 L 845 377 Z" fill="#c925d1" stroke="none" pointer-events="all" style="fill: light-dark(rgb(201, 37, 209), rgb(255, 124, 255));"></path><path d="M 853.63 326.46 L 861.33 334.16 L 860.16 335.33 L 852.46 327.63 L 852.46 333.91 L 850.8 333.91 L 850.8 325.63 C 850.8 325.17 851.17 324.8 851.63 324.8 L 859.91 324.8 L 859.91 326.46 Z M 897.2 325.63 L 897.2 333.91 L 895.54 333.91 L 895.54 327.63 L 887.84 335.33 L 886.67 334.16 L 894.37 326.46 L 888.09 326.46 L 888.09 324.8 L 896.37 324.8 C 896.83 324.8 897.2 325.17 897.2 325.63 Z M 895.54 362.09 L 897.2 362.09 L 897.2 370.37 C 897.2 370.83 896.83 371.2 896.37 371.2 L 888.09 371.2 L 888.09 369.54 L 894.37 369.54 L 886.67 361.84 L 887.84 360.67 L 895.54 368.37 Z M 895.13 347.35 C 895.13 344.6 891.95 341.88 886.64 340.08 L 887.17 338.51 C 893.28 340.58 896.79 343.8 896.79 347.35 C 896.79 350.9 893.28 354.12 887.17 356.19 L 886.63 354.62 C 891.95 352.82 895.13 350.1 895.13 347.35 Z M 852.92 347.35 C 852.92 349.98 855.89 352.63 860.87 354.42 L 860.31 355.98 C 854.56 353.91 851.26 350.76 851.26 347.35 C 851.26 343.94 854.56 340.79 860.31 338.71 L 860.87 340.27 C 855.89 342.07 852.92 344.71 852.92 347.35 Z M 861.33 361.84 L 853.63 369.54 L 859.91 369.54 L 859.91 371.2 L 851.63 371.2 C 851.17 371.2 850.8 370.83 850.8 370.37 L 850.8 362.09 L 852.46 362.09 L 852.46 368.37 L 860.16 360.67 Z M 874 340.78 C 868.08 340.78 864.89 339.25 864.89 338.63 C 864.89 338 868.08 336.47 874 336.47 C 879.92 336.47 883.11 338 883.11 338.63 C 883.11 339.25 879.92 340.78 874 340.78 Z M 874.02 347.2 C 868.35 347.2 864.89 345.65 864.89 344.81 L 864.89 340.78 C 866.93 341.9 870.55 342.44 874 342.44 C 877.45 342.44 881.07 341.9 883.11 340.78 L 883.11 344.81 C 883.11 345.65 879.66 347.2 874.02 347.2 Z M 874.02 353.52 C 868.35 353.52 864.89 351.98 864.89 351.13 L 864.89 347.06 C 866.9 348.24 870.47 348.85 874.02 348.85 C 877.56 348.85 881.11 348.24 883.11 347.06 L 883.11 351.13 C 883.11 351.98 879.66 353.52 874.02 353.52 Z M 874 359.2 C 868.1 359.2 864.89 357.62 864.89 356.8 L 864.89 353.38 C 866.9 354.57 870.47 355.18 874.02 355.18 C 877.56 355.18 881.11 354.57 883.11 353.39 L 883.11 356.8 C 883.11 357.62 879.9 359.2 874 359.2 Z M 874 334.81 C 868.81 334.81 863.23 336.01 863.23 338.63 L 863.23 356.8 C 863.23 359.46 868.65 360.86 874 360.86 C 879.35 360.86 884.77 359.46 884.77 356.8 L 884.77 338.63 C 884.77 336.01 879.19 334.81 874 334.81 Z" fill="#ffffff" stroke="none" pointer-events="all" style="fill: light-dark(rgb(255, 255, 255), rgb(18, 18, 18));"></path></g><g transform="translate(0.5,0.5)" style="visibility: visible;"><rect x="911" y="315" width="274" height="66" fill="#161d29" stroke="none" pointer-events="all" style="fill: light-dark(rgb(22, 29, 41), rgb(207, 213, 223));"></rect></g><g style=""><g><foreignObject style="overflow: visible; text-align: left;" pointer-events="none" width="100%" height="100%"><div xmlns="http://www.w3.org/1999/xhtml" style="display: flex; align-items: unsafe center; justify-content: unsafe flex-start; width: 264px; height: 1px; padding-top: 348px; margin-left: 921px;"><div xmlns="http://www.w3.org/1999/xhtml" style="box-sizing: border-box; font-size: 0; text-align: left; color: #72DCCB; "><div xmlns="http://www.w3.org/1999/xhtml" style="display: inline-block; font-size: 20px; font-family: 'PingFang TC'; color: light-dark(#72DCCB, #00594a); line-height: 1.2; pointer-events: all; font-weight: bold; white-space: normal; word-wrap: normal; ">RDS for PostgreSQL<br/><font color="#AEB8B4" style="color: light-dark(rgb(174, 184, 180), rgb(74, 83, 80));">Private · 共同狀態</font></div></div></div></foreignObject></g></g><g transform="translate(0.5,0.5)" style="visibility: visible;"><rect x="800" y="450" width="440" height="40" fill-opacity="0.8" fill="#101a1d" stroke="#347e75" stroke-dasharray="4 4" pointer-events="all" style="fill: light-dark(rgb(16, 26, 29), rgb(210, 218, 221)); stroke: light-dark(rgb(52, 126, 117), rgb(94, 157, 149));"></rect></g><g style=""><g><foreignObject style="overflow: visible; text-align: left;" pointer-events="none" width="100%" height="100%"><div xmlns="http://www.w3.org/1999/xhtml" style="display: flex; align-items: unsafe center; justify-content: unsafe flex-start; width: 426px; height: 1px; padding-top: 470px; margin-left: 814px;"><div xmlns="http://www.w3.org/1999/xhtml" style="box-sizing: border-box; font-size: 0; text-align: left; color: #73D4C5; "><div xmlns="http://www.w3.org/1999/xhtml" style="display: inline-block; font-size: 19px; font-family: 'PingFang TC'; color: light-dark(#73D4C5, #095c4f); line-height: 1.2; pointer-events: all; font-weight: bold; white-space: normal; word-wrap: normal; ">private data subnet · AZ B</div></div></div></foreignObject></g></g><g transform="translate(0.5,0.5)" style="visibility: visible;"><path d="M 67.09 347.65 C 74.96 347.65 81.36 341.2 81.36 333.28 C 81.36 325.36 74.96 318.91 67.09 318.91 C 59.23 318.91 52.82 325.36 52.82 333.28 C 52.82 341.2 59.23 347.65 67.09 347.65 L 67.09 347.65 Z M 40.95 377.09 L 75.82 377.09 L 75.82 380 L 39.45 380 C 38.65 380 38 379.35 38 378.55 C 38 364.29 47.52 352.34 60.28 349.13 C 54.19 346.47 49.92 340.37 49.92 333.28 C 49.92 323.75 57.62 316 67.09 316 C 76.56 316 84.27 323.75 84.27 333.28 C 84.27 340.37 79.99 346.47 73.91 349.13 C 75.24 349.46 76.55 349.86 77.83 350.39 C 78.09 350.5 78.34 350.61 78.59 350.72 L 77.4 353.37 C 77.17 353.27 76.94 353.17 76.71 353.08 C 73.65 351.81 70.41 351.17 67.09 351.17 C 53.12 351.17 41.67 362.67 40.95 377.09 L 40.95 377.09 Z M 99.09 366.18 C 99.09 360.17 94.2 355.27 88.18 355.27 C 82.17 355.27 77.27 360.17 77.27 366.18 C 77.27 372.2 82.17 377.09 88.18 377.09 C 94.2 377.09 99.09 372.2 99.09 366.18 L 99.09 366.18 Z M 102 366.18 C 102 373.8 95.8 380 88.18 380 C 80.56 380 74.36 373.8 74.36 366.18 C 74.36 358.56 80.56 352.36 88.18 352.36 C 95.8 352.36 102 358.56 102 366.18 L 102 366.18 Z M 93.7 360.91 L 95.76 362.97 L 87.03 371.69 C 86.74 371.98 86.37 372.12 86 372.12 C 85.63 372.12 85.26 371.98 84.97 371.69 L 80.61 367.33 L 82.66 365.27 L 86 368.61 L 93.7 360.91 Z" fill="#47c9b8" stroke="none" pointer-events="all" style="fill: light-dark(rgb(71, 201, 184), rgb(2, 114, 99));"></path></g><g transform="translate(0.5,0.5)" style="visibility: visible;"><rect x="0" y="390" width="140" height="58" fill="#0b1019" stroke="none" pointer-events="all" style="fill: light-dark(rgb(11, 16, 25), rgb(219, 224, 231));"></rect></g><g style=""><g><foreignObject style="overflow: visible; text-align: left;" pointer-events="none" width="100%" height="100%"><div xmlns="http://www.w3.org/1999/xhtml" style="display: flex; align-items: unsafe center; justify-content: unsafe center; width: 138px; height: 1px; padding-top: 419px; margin-left: 1px;"><div xmlns="http://www.w3.org/1999/xhtml" style="box-sizing: border-box; font-size: 0; text-align: center; color: #F4F7F5; "><div xmlns="http://www.w3.org/1999/xhtml" style="display: inline-block; font-size: 20px; font-family: 'PingFang TC'; color: light-dark(#F4F7F5, #181a19); line-height: 1.2; pointer-events: all; font-weight: bold; white-space: normal; word-wrap: normal; ">玩家瀏覽器<br/><font color="#AEB8B4" style="color: light-dark(rgb(174, 184, 180), rgb(74, 83, 80));">HTTPS 443</font></div></div></div></foreignObject></g></g><g transform="translate(0.5,0.5)" style="visibility: visible;"><path d="M 243.81 364.36 L 241.63 364.36 L 241.63 338.6 C 241.63 338.02 241.29 337.5 240.77 337.27 L 240.64 337.21 C 237.71 335.88 234.68 334.52 230.32 334.52 C 225.77 334.52 222.43 335.99 219.13 337.63 C 218.63 337.87 218.32 338.38 218.32 338.93 L 218.32 364.36 L 216.19 364.36 L 216.19 336.86 C 219.73 333.98 224.85 332.33 230.34 332.33 C 235.44 332.33 240.31 333.79 243.81 336.34 Z M 230.34 329.42 C 223.89 329.42 217.85 331.49 213.76 335.09 C 213.45 335.37 213.27 335.77 213.27 336.19 L 213.27 365.82 C 213.27 366.62 213.92 367.27 214.73 367.27 L 219.78 367.27 C 220.58 367.27 221.23 366.62 221.23 365.82 L 221.23 339.84 C 224.03 338.49 226.74 337.43 230.32 337.43 C 233.73 337.43 236.2 338.41 238.71 339.54 L 238.71 365.82 C 238.71 366.62 239.37 367.27 240.17 367.27 L 245.27 367.27 C 246.08 367.27 246.73 366.62 246.73 365.82 L 246.73 335.62 C 246.73 335.17 246.53 334.75 246.18 334.47 C 242.13 331.26 236.36 329.42 230.34 329.42 Z M 230 377.08 C 213.96 377.08 200.92 364.04 200.92 348 C 200.92 331.96 213.96 318.92 230 318.92 C 246.04 318.92 259.08 331.96 259.08 348 C 259.08 364.04 246.04 377.08 230 377.08 Z M 230 316 C 212.36 316 198 330.36 198 348 C 198 365.65 212.36 380 230 380 C 247.64 380 262 365.65 262 348 C 262 330.36 247.64 316 230 316 Z" fill="#8c4fff" stroke="none" pointer-events="all" style="fill: light-dark(rgb(140, 79, 255), rgb(177, 125, 255));"></path></g><g transform="translate(0.5,0.5)" style="visibility: visible;"><rect x="155" y="390" width="150" height="58" fill="#0b1019" stroke="none" pointer-events="all" style="fill: light-dark(rgb(11, 16, 25), rgb(219, 224, 231));"></rect></g><g style=""><g><foreignObject style="overflow: visible; text-align: left;" pointer-events="none" width="100%" height="100%"><div xmlns="http://www.w3.org/1999/xhtml" style="display: flex; align-items: unsafe center; justify-content: unsafe center; width: 148px; height: 1px; padding-top: 419px; margin-left: 156px;"><div xmlns="http://www.w3.org/1999/xhtml" style="box-sizing: border-box; font-size: 0; text-align: center; color: #F4F7F5; "><div xmlns="http://www.w3.org/1999/xhtml" style="display: inline-block; font-size: 19px; font-family: 'PingFang TC'; color: light-dark(#F4F7F5, #181a19); line-height: 1.2; pointer-events: all; font-weight: bold; white-space: normal; word-wrap: normal; ">Internet Gateway<br/><font color="#AEB8B4" style="color: light-dark(rgb(174, 184, 180), rgb(74, 83, 80));">VPC 公開入口</font></div></div></div></foreignObject></g></g><g transform="translate(0.5,0.5)" style="visibility: visible;"><rect x="1320" y="250" width="220" height="140" fill="none" stroke="white" pointer-events="stroke" visibility="hidden" stroke-width="9"></rect></g><g transform="translate(0.5,0.5)" style="visibility: visible;"><path d="M 1401 250 L 1459 250 L 1459 308 L 1401 308 Z" fill="#01a88d" stroke="none" pointer-events="all" style="fill: light-dark(rgb(1, 168, 141), rgb(14, 157, 134));"></path><path d="M 1449.87 278.19 C 1448.96 278.19 1448.22 277.45 1448.22 276.53 C 1448.22 275.62 1448.96 274.88 1449.87 274.88 C 1450.79 274.88 1451.53 275.62 1451.53 276.53 C 1451.53 277.45 1450.79 278.19 1449.87 278.19 Z M 1423.47 300.47 L 1420.78 298.9 L 1426.3 295.45 L 1425.42 294.05 L 1419.16 297.96 L 1414.27 295.1 L 1414.27 287.74 L 1418.87 284.67 L 1417.95 283.3 L 1413.41 286.32 L 1408.47 283.5 L 1408.47 279.5 L 1413.85 276.42 L 1413.03 274.99 L 1408.47 277.59 L 1408.47 274.53 L 1413.44 271.69 L 1418.41 274.53 L 1418.41 277.72 L 1414.67 279.96 L 1415.52 281.38 L 1419.24 279.15 L 1422.95 281.38 L 1423.8 279.96 L 1420.06 277.72 L 1420.06 274.49 L 1424.66 271.43 C 1424.89 271.27 1425.03 271.01 1425.03 270.74 L 1425.03 264.94 L 1423.38 264.94 L 1423.38 270.29 L 1419.2 273.08 L 1414.27 270.26 L 1414.27 262.93 L 1418.41 260.52 L 1418.41 267.42 L 1420.06 267.42 L 1420.06 259.55 L 1423.47 257.56 L 1430 259.74 L 1430 283.52 L 1417.98 290.73 L 1418.83 292.15 L 1430 285.45 L 1430 298.29 Z M 1448.22 287.3 C 1448.22 288.21 1447.47 288.95 1446.56 288.95 C 1445.65 288.95 1444.9 288.21 1444.9 287.3 C 1444.9 286.38 1445.65 285.64 1446.56 285.64 C 1447.47 285.64 1448.22 286.38 1448.22 287.3 Z M 1439.94 295.58 C 1439.94 296.49 1439.19 297.23 1438.28 297.23 C 1437.37 297.23 1436.62 296.49 1436.62 295.58 C 1436.62 294.66 1437.37 293.92 1438.28 293.92 C 1439.19 293.92 1439.94 294.66 1439.94 295.58 Z M 1439.11 262.46 C 1439.11 261.54 1439.85 260.8 1440.76 260.8 C 1441.68 260.8 1442.42 261.54 1442.42 262.46 C 1442.42 263.37 1441.68 264.11 1440.76 264.11 C 1439.85 264.11 1439.11 263.37 1439.11 262.46 Z M 1449.87 273.22 C 1448.33 273.22 1447.05 274.28 1446.68 275.7 L 1431.66 275.7 L 1431.66 271.56 L 1440.76 271.56 C 1441.22 271.56 1441.59 271.19 1441.59 270.74 L 1441.59 265.65 C 1443.02 265.28 1444.08 263.99 1444.08 262.46 C 1444.08 260.63 1442.59 259.14 1440.76 259.14 C 1438.94 259.14 1437.45 260.63 1437.45 262.46 C 1437.45 263.99 1438.51 265.28 1439.94 265.65 L 1439.94 269.91 L 1431.66 269.91 L 1431.66 259.14 C 1431.66 258.79 1431.43 258.47 1431.09 258.36 L 1423.64 255.87 C 1423.41 255.8 1423.16 255.82 1422.96 255.94 L 1413.02 261.74 C 1412.77 261.89 1412.61 262.16 1412.61 262.46 L 1412.61 270.26 L 1407.23 273.33 C 1406.98 273.48 1406.82 273.75 1406.82 274.05 L 1406.82 283.98 C 1406.82 284.28 1406.98 284.56 1407.23 284.7 L 1412.61 287.78 L 1412.61 295.58 C 1412.61 295.87 1412.77 296.14 1413.02 296.29 L 1422.96 302.09 C 1423.09 302.16 1423.23 302.2 1423.38 302.2 C 1423.46 302.2 1423.55 302.19 1423.64 302.16 L 1431.09 299.67 C 1431.43 299.56 1431.66 299.24 1431.66 298.89 L 1431.66 288.95 L 1437.45 288.95 L 1437.45 292.38 C 1436.03 292.75 1434.97 294.04 1434.97 295.58 C 1434.97 297.4 1436.45 298.89 1438.28 298.89 C 1440.11 298.89 1441.59 297.4 1441.59 295.58 C 1441.59 294.04 1440.53 292.75 1439.11 292.38 L 1439.11 288.12 C 1439.11 287.67 1438.74 287.3 1438.28 287.3 L 1431.66 287.3 L 1431.66 283.16 L 1442.01 283.16 L 1443.78 285.52 C 1443.45 286.03 1443.25 286.64 1443.25 287.3 C 1443.25 289.12 1444.73 290.61 1446.56 290.61 C 1448.39 290.61 1449.87 289.12 1449.87 287.3 C 1449.87 285.47 1448.39 283.98 1446.56 283.98 C 1445.99 283.98 1445.47 284.14 1445 284.39 L 1443.08 281.83 C 1442.93 281.62 1442.68 281.5 1442.42 281.5 L 1431.66 281.5 L 1431.66 277.36 L 1446.68 277.36 C 1447.05 278.78 1448.33 279.84 1449.87 279.84 C 1451.7 279.84 1453.18 278.36 1453.18 276.53 C 1453.18 274.71 1451.7 273.22 1449.87 273.22 Z" fill="#ffffff" stroke="none" pointer-events="all" style="fill: light-dark(rgb(255, 255, 255), rgb(18, 18, 18));"></path></g><g transform="translate(0.5,0.5)" style="visibility: visible;"><rect x="1320" y="320" width="220" height="66" fill="#15171b" stroke="none" pointer-events="all" style="fill: light-dark(rgb(21, 23, 27), rgb(215, 217, 220));"></rect></g><g style=""><g><foreignObject style="overflow: visible; text-align: left;" pointer-events="none" width="100%" height="100%"><div xmlns="http://www.w3.org/1999/xhtml" style="display: flex; align-items: unsafe center; justify-content: unsafe center; width: 218px; height: 1px; padding-top: 353px; margin-left: 1321px;"><div xmlns="http://www.w3.org/1999/xhtml" style="box-sizing: border-box; font-size: 0; text-align: center; color: #F4F7F5; "><div xmlns="http://www.w3.org/1999/xhtml" style="display: inline-block; font-size: 20px; font-family: 'PingFang TC'; color: light-dark(#F4F7F5, #181a19); line-height: 1.2; pointer-events: all; font-weight: bold; white-space: normal; word-wrap: normal; ">Amazon Bedrock<br/><font color="#AEB8B4" style="color: light-dark(rgb(174, 184, 180), rgb(74, 83, 80));">受約束的故事續寫</font></div></div></div></foreignObject></g></g><g transform="translate(0.5,0.5)" style="visibility: visible;"><rect x="230" y="610" width="360" height="110" fill="#0f141d" stroke="#514329" pointer-events="all" style="fill: light-dark(rgb(15, 20, 29), rgb(217, 221, 229)); stroke: light-dark(rgb(81, 67, 41), rgb(191, 178, 156));"></rect></g><g style=""><g><foreignObject style="overflow: visible; text-align: left;" pointer-events="none" width="100%" height="100%"><div xmlns="http://www.w3.org/1999/xhtml" style="display: flex; align-items: unsafe center; justify-content: unsafe flex-start; width: 338px; height: 1px; padding-top: 665px; margin-left: 252px;"><div xmlns="http://www.w3.org/1999/xhtml" style="box-sizing: border-box; font-size: 0; text-align: left; color: #000000; "><div xmlns="http://www.w3.org/1999/xhtml" style="display: inline-block; font-size: 20px; font-family: 'PingFang TC'; color: light-dark(#000000, #ffffff); line-height: 1.2; pointer-events: all; white-space: normal; word-wrap: normal; "><font color="#F2BD57" style="color: light-dark(rgb(242, 189, 87), rgb(114, 68, 0));"><b>EC2</b></font><br/><font color="#AEB8B4" style="color: light-dark(rgb(174, 184, 180), rgb(74, 83, 80));">完整控制 Web 與 API 執行環境</font></div></div></div></foreignObject></g></g><g transform="translate(0.5,0.5)" style="visibility: visible;"><rect x="590" y="610" width="360" height="110" fill="#0f141d" stroke="#514329" pointer-events="all" style="fill: light-dark(rgb(15, 20, 29), rgb(217, 221, 229)); stroke: light-dark(rgb(81, 67, 41), rgb(191, 178, 156));"></rect></g><g style=""><g><foreignObject style="overflow: visible; text-align: left;" pointer-events="none" width="100%" height="100%"><div xmlns="http://www.w3.org/1999/xhtml" style="display: flex; align-items: unsafe center; justify-content: unsafe flex-start; width: 338px; height: 1px; padding-top: 665px; margin-left: 612px;"><div xmlns="http://www.w3.org/1999/xhtml" style="box-sizing: border-box; font-size: 0; text-align: left; color: #000000; "><div xmlns="http://www.w3.org/1999/xhtml" style="display: inline-block; font-size: 20px; font-family: 'PingFang TC'; color: light-dark(#000000, #ffffff); line-height: 1.2; pointer-events: all; white-space: normal; word-wrap: normal; "><font color="#F2BD57" style="color: light-dark(rgb(242, 189, 87), rgb(114, 68, 0));"><b>RDS</b></font><br/><font color="#AEB8B4" style="color: light-dark(rgb(174, 184, 180), rgb(74, 83, 80));">以關聯式交易保存共同狀態</font></div></div></div></foreignObject></g></g><g transform="translate(0.5,0.5)" style="visibility: visible;"><rect x="950" y="610" width="360" height="110" fill="#0f141d" stroke="#514329" pointer-events="all" style="fill: light-dark(rgb(15, 20, 29), rgb(217, 221, 229)); stroke: light-dark(rgb(81, 67, 41), rgb(191, 178, 156));"></rect></g><g style=""><g><foreignObject style="overflow: visible; text-align: left;" pointer-events="none" width="100%" height="100%"><div xmlns="http://www.w3.org/1999/xhtml" style="display: flex; align-items: unsafe center; justify-content: unsafe flex-start; width: 338px; height: 1px; padding-top: 665px; margin-left: 972px;"><div xmlns="http://www.w3.org/1999/xhtml" style="box-sizing: border-box; font-size: 0; text-align: left; color: #000000; "><div xmlns="http://www.w3.org/1999/xhtml" style="display: inline-block; font-size: 20px; font-family: 'PingFang TC'; color: light-dark(#000000, #ffffff); line-height: 1.2; pointer-events: all; white-space: normal; word-wrap: normal; "><font color="#F2BD57" style="color: light-dark(rgb(242, 189, 87), rgb(114, 68, 0));"><b>Bedrock</b></font><br/><font color="#AEB8B4" style="color: light-dark(rgb(174, 184, 180), rgb(74, 83, 80));">透過 IAM 使用可替換模型</font></div></div></div></foreignObject></g></g><g transform="translate(0.5,0.5)" style="visibility: visible;"><path d="M 102 348 L 181.65 348" fill="none" stroke="white" stroke-width="11" stroke-miterlimit="10" pointer-events="stroke" style="stroke: light-dark(rgb(105, 185, 242), rgb(31, 100, 149));" visibility="hidden"></path><path d="M 102 348 L 181.65 348" fill="none" stroke="#69b9f2" stroke-width="3" stroke-miterlimit="10" pointer-events="stroke" style="stroke: light-dark(rgb(105, 185, 242), rgb(31, 100, 149));"></path><path d="M 194.65 348 L 181.65 352.33 L 181.65 343.67 Z" fill="#69b9f2" stroke="#69b9f2" stroke-width="3" stroke-miterlimit="10" pointer-events="all" style="fill: light-dark(rgb(105, 185, 242), rgb(31, 100, 149)); stroke: light-dark(rgb(105, 185, 242), rgb(31, 100, 149));"></path></g><g transform="translate(0.5,0.5)" style="visibility: visible;"><path d="M 262 348 L 328.65 348" fill="none" stroke="white" stroke-width="11" stroke-miterlimit="10" pointer-events="stroke" style="stroke: light-dark(rgb(105, 185, 242), rgb(31, 100, 149));" visibility="hidden"></path><path d="M 262 348 L 328.65 348" fill="none" stroke="#69b9f2" stroke-width="3" stroke-miterlimit="10" pointer-events="stroke" style="stroke: light-dark(rgb(105, 185, 242), rgb(31, 100, 149));"></path><path d="M 341.65 348 L 328.65 352.33 L 328.65 343.67 Z" fill="#69b9f2" stroke="#69b9f2" stroke-width="3" stroke-miterlimit="10" pointer-events="all" style="fill: light-dark(rgb(105, 185, 242), rgb(31, 100, 149)); stroke: light-dark(rgb(105, 185, 242), rgb(31, 100, 149));"></path></g><g transform="translate(0.5,0.5)" style="visibility: visible;"><path d="M 675 348 L 828.65 348" fill="none" stroke="white" stroke-width="11" stroke-miterlimit="10" pointer-events="stroke" style="stroke: light-dark(rgb(71, 201, 184), rgb(2, 114, 99));" visibility="hidden"></path><path d="M 675 348 L 828.65 348" fill="none" stroke="#47c9b8" stroke-width="3" stroke-miterlimit="10" pointer-events="stroke" style="stroke: light-dark(rgb(71, 201, 184), rgb(2, 114, 99));"></path><path d="M 841.65 348 L 828.65 352.33 L 828.65 343.67 Z" fill="#47c9b8" stroke="#47c9b8" stroke-width="3" stroke-miterlimit="10" pointer-events="all" style="fill: light-dark(rgb(71, 201, 184), rgb(2, 114, 99)); stroke: light-dark(rgb(71, 201, 184), rgb(2, 114, 99));"></path></g><g transform="translate(0.5,0.5)" style="visibility: visible;"><path d="M 510 381 L 510 560 L 1430 560 L 1430 406.35" fill="none" stroke="white" stroke-width="11" stroke-miterlimit="10" pointer-events="stroke" style="stroke: light-dark(rgb(242, 189, 87), rgb(114, 68, 0));" visibility="hidden"></path><path d="M 510 381 L 510 560 L 1430 560 L 1430 406.35" fill="none" stroke="#f2bd57" stroke-width="3" stroke-miterlimit="10" pointer-events="stroke" style="stroke: light-dark(rgb(242, 189, 87), rgb(114, 68, 0));"></path><path d="M 1430 393.35 L 1434.33 406.35 L 1425.67 406.35 Z" fill="#f2bd57" stroke="#f2bd57" stroke-width="3" stroke-miterlimit="10" pointer-events="all" style="fill: light-dark(rgb(242, 189, 87), rgb(114, 68, 0)); stroke: light-dark(rgb(242, 189, 87), rgb(114, 68, 0));"></path></g></g><g></g><g></g></g></svg>